<svg id="Layer_1" xmlns="http://www.w3.org/2000/svg" viewBox="0 0 36 36"><style>.st0{fill:#FFFFFF;}</style><path class="st0" d="M33.4 0H2.6C1.1 0 0 1.1 0 2.6v30.9C0 34.9 1.1 36 2.6 36h30.9c1.4 0 2.6-1.1 2.6-2.6V2.6C36 1.1 34.9 0 33.4 0zM20.3 26.1L18.6 21h-5.7l-1.7 5.1H9l5.5-16.2H17l5.5 16.2h-2.2zm5.5 0h-2.1V14.5h2.1v11.6zm-1.1-13.6c-.7 0-1.3-.6-1.3-1.3 0-.7.6-1.3 1.3-1.3.8 0 1.3.6 1.3 1.3 0 .7-.5 1.3-1.3 1.3z"/><path class="st0" d="M15.7 11.8c-.3 1-.6 1.9-.9 2.9l-1.6 4.7h4.9l-1.6-4.7c-.3-1-.6-2-.8-2.9z"/></svg>