<svg id="Layer_1" xmlns="http://www.w3.org/2000/svg" viewBox="0 0 36 36"><style>.st0{fill:#FFFFFF;}</style><path class="st0" d="M18.4 18.1c-.6.7-.9 1.6-.9 2.8 0 1.1.3 2 .8 2.6.3.4.7.6 1 .7.4.1 1 .2 2 .2H23v-6.8c-.7-.3-1.3-.5-2-.5-1.2-.1-2 .3-2.6 1z"/><path class="st0" d="M33.4 0H2.6C1.1 0 0 1.1 0 2.6v30.9C0 34.9 1.1 36 2.6 36h30.9c1.4 0 2.6-1.1 2.6-2.6V2.6C36 1.1 34.9 0 33.4 0zM13.3 26.2H11V9.8h2.3v16.4zm11.8 0h-4.6c-1.6 0-2.9-.5-3.8-1.5-.9-1-1.4-2.4-1.4-4.1 0-1.6.5-2.9 1.5-3.9s2.3-1.5 3.8-1.5c.7 0 1.5.2 2.3.5V9.8H25v16.4z"/></svg>