<svg id="Layer_1" xmlns="http://www.w3.org/2000/svg" viewBox="0 0 36 36"><style>.st0{fill:#FFFFFF;}</style><path class="st0" d="M13.2 11.4c-.9 0-1.6.1-2 .2v6.3c.5.1 1 .2 1.7.2 2.5 0 4.1-1.2 4.1-3.5 0-2.2-1.5-3.2-3.8-3.2z"/><path class="st0" d="M33.4 0H2.6C1.1 0 0 1.1 0 2.6v30.9C0 34.9 1.1 36 2.6 36h30.9c1.4 0 2.6-1.1 2.6-2.6V2.6C36 1.1 34.9 0 33.4 0zM17.8 17.9c-1.1 1.2-2.9 1.8-4.9 1.8-.6 0-1.2 0-1.7-.1V26H9.1V10c1-.2 2.3-.3 4-.3 2.1 0 3.6.5 4.5 1.3.9.8 1.4 1.9 1.4 3.4.1 1.5-.4 2.7-1.2 3.5zm4.8 8.4c-1.3 0-2.4-.3-3.3-.8l.5-1.6c.6.4 1.7.8 2.8.8 1.5 0 2.3-.8 2.3-1.7 0-1-.6-1.6-2.2-2.1-2.1-.7-3.1-1.9-3.1-3.3 0-1.9 1.5-3.4 4-3.4 1.2 0 2.2.3 2.9.7l-.5 1.5c-.5-.3-1.3-.7-2.4-.7-1.2 0-1.9.7-1.9 1.6 0 1 .7 1.4 2.2 2 2 .8 3 1.8 3 3.5 0 2-1.6 3.5-4.3 3.5z"/></svg>