<svg id="command-key-icon" xmlns="http://www.w3.org/2000/svg" viewBox="0 0 54 54"><style>.command-key{fill:#606060;}</style><path class="command-key-icon" d="M53.7 40.5c-1.1-4.4-4.7-7.4-9.4-8h-7.2v-11h7.2c5.2-.4 9.2-4.3 9.7-9.3.5-5.6-2.7-10.4-7.7-11.7C40.7-1 35.2 1.6 33.4 6.4c-.5 1.3-.8 2.9-.9 4.7v6.2h-11V9.7C21 4.3 16.4 0 10.9 0h-.1C5.1 0 .3 4.7 0 10.5c-.2 5.6 4.1 10.6 9.7 11H17.4v10.9h-7.1c-.5 0-1 .1-1.4.2-5.4.9-9.5 6.1-8.9 11.5.7 6 5.4 10.1 11.5 9.8 5.4-.3 9.5-4.2 10-9.6v-7.4h10.9v7.3c0 .4.1.7.2 1.1.7 3.5 2.9 6.3 6 7.7 3.1 1.5 6.7 1.3 9.8-.4 4.3-2.3 6.5-7.2 5.3-12.1zM17.4 13.9v3.3H11.8c-.6 0-1.2 0-1.8-.1-3.4-.6-5.5-3.2-5.4-6.7C4.7 7.4 7 5 10 4.6c3.4-.4 6.2 1.5 7.1 4.9.2.8.2 1.6.3 2.4v2zm.1 26.2c.1 2.2-.2 3.4-.7 5-.8 2.6-3.1 4.5-5.9 4.5-.4 0-.7 0-1.1-.1-3.3-.6-5.4-3.4-5.3-6.8.2-3.1 2.6-5.6 5.7-5.8 1.3-.1 2.6-.1 4.1 0H17.4c.1 0 .1 2.2.1 3.2zm15-9.5v1.9H21.4v-11h11v7.1c.2.8.2 1.4.1 2zm4.4-20.1c.1-3.2 2.5-5.7 5.6-6 3.4-.3 6.2 1.8 6.9 5.1.7 3.1-1.2 6.4-4.2 7.1-1.6.4-3.3.6-5.1.7h-3.3v-.8-2.2c.1-1.4.1-2.6.1-3.9zm6.4 39.1c-.1 0-.1 0 0 0-3.4 0-6.1-2.6-6.3-5.9-.1-1.3-.1-2.6 0-4v-2.8s5.6-.1 6.9 0c3.2.2 5.9 3.2 5.8 6.4-.2 3.4-3.1 6.2-6.4 6.3z"/></svg>